<?xml version="1.0" standalone="no"?>
<!DOCTYPE svg PUBLIC "-//W3C//DTD SVG 20010904//EN"
 "http://www.w3.org/TR/2001/REC-SVG-20010904/DTD/svg10.dtd">
<svg version="1.0" xmlns="http://www.w3.org/2000/svg"
 width="300.000000pt" height="300.000000pt" viewBox="0 0 300.000000 300.000000"
 preserveAspectRatio="xMidYMid meet">
<metadata>
Created by potrace 1.14, written by Peter Selinger 2001-2017
</metadata>
<g transform="translate(0.000000,300.000000) scale(0.100000,-0.100000)"
fill="#000000" stroke="none">
<path d="M820 1500 l0 -690 68 0 67 0 0 560 c0 412 3 556 11 547 13 -14 458
-782 475 -821 12 -26 35 -34 80 -28 19 3 33 16 49 45 13 23 79 138 147 255 68
118 123 218 123 223 0 5 5 9 10 9 6 0 10 4 10 9 0 8 49 94 123 219 15 26 32
57 37 69 5 11 13 24 18 27 5 3 9 -214 10 -542 0 -301 1 -553 1 -559 1 -9 22
-13 69 -13 l67 0 -1 688 0 687 -70 3 c-63 2 -70 1 -83 -20 -15 -24 -175 -302
-218 -378 -14 -25 -77 -135 -141 -245 -64 -110 -128 -222 -143 -249 l-27 -49
-57 99 c-32 55 -71 120 -86 147 -16 26 -29 50 -29 52 0 3 -11 22 -23 43 -13
20 -38 62 -55 92 -16 30 -89 156 -160 280 l-130 225 -71 3 -71 3 0 -691z"/>
</g>
</svg>
